<svg width="1188" height="52" viewBox="0 0 1188 52" fill="none" xmlns="http://www.w3.org/2000/svg">
<g filter="url(#filter0_d_1_2201)">
<mask id="path-1-inside-1_1_2201" fill="white">
<path d="M4 7C4 4.23858 6.23858 2 9 2H1179C1181.76 2 1184 4.23858 1184 7V41C1184 43.7614 1181.76 46 1179 46H9.00001C6.23858 46 4 43.7614 4 41V7Z"/>
</mask>
<path d="M4 7C4 4.23858 6.23858 2 9 2H1179C1181.76 2 1184 4.23858 1184 7V41C1184 43.7614 1181.76 46 1179 46H9.00001C6.23858 46 4 43.7614 4 41V7Z" fill="#E6FCEF" shape-rendering="crispEdges"/>
<path d="M4 2H1184H4ZM1184 46H4H1184ZM9 46C5.13401 46 2 42.866 2 39V9C2 5.13401 5.13401 2 9 2C7.34315 2 6 4.23858 6 7V41C6 43.7614 7.34315 46 9 46ZM1184 2V46V2Z" fill="#67C48C" mask="url(#path-1-inside-1_1_2201)"/>
<path d="M38 23.08V24C37.9988 26.1564 37.3005 28.2547 36.0093 29.9818C34.7182 31.709 32.9033 32.9725 30.8354 33.5839C28.7674 34.1953 26.5573 34.1219 24.5345 33.3746C22.5117 32.6273 20.7847 31.2461 19.611 29.4371C18.4373 27.628 17.8798 25.4881 18.0217 23.3363C18.1636 21.1846 18.9972 19.1363 20.3983 17.4971C21.7994 15.8578 23.6928 14.7154 25.7962 14.2401C27.8996 13.7649 30.1003 13.9823 32.07 14.86" stroke="#67C48C" stroke-linecap="round" stroke-linejoin="round"/>
<path d="M38 16L28 26.01L25 23.01" stroke="#67C48C" stroke-linecap="round" stroke-linejoin="round"/>
<path d="M52.208 29H50.998V18.7734H54.293C54.7943 18.7734 55.2477 18.8258 55.6533 18.9307C56.0589 19.0355 56.4189 19.195 56.7334 19.4092C57.0479 19.6234 57.2917 19.9105 57.4648 20.2705C57.638 20.6305 57.7246 21.0498 57.7246 21.5283C57.7246 21.9248 57.6882 22.2803 57.6152 22.5947C57.5423 22.9046 57.417 23.1963 57.2393 23.4697C57.0615 23.7432 56.8291 23.971 56.542 24.1533C56.2549 24.3311 55.8857 24.4723 55.4346 24.5771C54.988 24.6774 54.4684 24.7275 53.876 24.7275C53.4066 24.7275 52.8506 24.6979 52.208 24.6387V29ZM53.9922 23.6816C54.4388 23.6816 54.8216 23.6383 55.1406 23.5518C55.4596 23.4652 55.7035 23.3581 55.8721 23.2305C56.0452 23.1029 56.1797 22.9365 56.2754 22.7314C56.3757 22.5264 56.4372 22.3395 56.46 22.1709C56.4827 21.9977 56.4941 21.7904 56.4941 21.5488C56.4941 20.9701 56.2982 20.5439 55.9062 20.2705C55.5189 19.9971 54.9902 19.8604 54.3203 19.8604H52.208V23.668C53.0876 23.6771 53.6823 23.6816 53.9922 23.6816ZM58.6475 26.498V21.501H59.7959V26.5117C59.7959 26.8398 59.8415 27.1178 59.9326 27.3457C60.0283 27.5736 60.1628 27.7513 60.3359 27.8789C60.5137 28.002 60.7119 28.0908 60.9307 28.1455C61.154 28.2002 61.4092 28.2275 61.6963 28.2275C62.2887 28.2275 62.749 28.0977 63.0771 27.8379C63.4098 27.5781 63.5762 27.1361 63.5762 26.5117V21.501H64.7246V26.498C64.7246 26.8809 64.6699 27.2249 64.5605 27.5303C64.4512 27.8356 64.3031 28.0908 64.1162 28.2959C63.9339 28.4964 63.7129 28.6628 63.4531 28.7949C63.1934 28.9271 62.9176 29.0228 62.626 29.082C62.3389 29.1413 62.029 29.1709 61.6963 29.1709C61.3682 29.1709 61.0583 29.1413 60.7666 29.082C60.4749 29.0228 60.1969 28.9271 59.9326 28.7949C59.6729 28.6582 59.4473 28.4896 59.2559 28.2891C59.069 28.084 58.9209 27.8288 58.8115 27.5234C58.7021 27.2181 58.6475 26.8763 58.6475 26.498ZM69.8379 22.2939C69.1133 22.2939 68.5573 22.5446 68.1699 23.0459C67.7871 23.5426 67.5957 24.2741 67.5957 25.2402C67.5957 27.2181 68.3408 28.207 69.8311 28.207C70.2002 28.207 70.5238 28.1318 70.8018 27.9814C71.0843 27.8265 71.3053 27.6123 71.4648 27.3389C71.6289 27.0609 71.7497 26.7487 71.8271 26.4023C71.9092 26.056 71.9502 25.6709 71.9502 25.2471C71.9502 24.6729 71.8818 24.1715 71.7451 23.7432C71.613 23.3148 71.3851 22.9661 71.0615 22.6973C70.738 22.4284 70.3301 22.2939 69.8379 22.2939ZM69.9541 21.3438C70.6195 21.3438 71.1937 21.5124 71.6768 21.8496C72.1598 22.1868 72.5221 22.6449 72.7637 23.2236C73.0052 23.8024 73.126 24.4655 73.126 25.2129C73.126 25.9876 73.0052 26.6689 72.7637 27.2568C72.5267 27.8447 72.1644 28.3096 71.6768 28.6514C71.1937 28.9886 70.6149 29.1572 69.9404 29.1572C69.4437 29.1572 68.9902 29.0501 68.5801 28.8359C68.1699 28.6217 67.8281 28.3301 67.5547 27.9609L67.4385 29H66.4609V18.5889L67.6025 18.5205V21.002C67.6025 21.6126 67.5934 22.1367 67.5752 22.5742C67.8395 22.196 68.1813 21.8975 68.6006 21.6787C69.0244 21.4554 69.4756 21.3438 69.9541 21.3438ZM76.7559 29.1367C76.0267 29.1367 75.5094 28.9408 75.2041 28.5488C74.9033 28.1569 74.7529 27.4756 74.7529 26.5049V18.5889L75.8877 18.5205V26.0537C75.8877 26.3636 75.89 26.612 75.8945 26.7988C75.9036 26.9857 75.9219 27.1702 75.9492 27.3525C75.9766 27.5303 76.013 27.6647 76.0586 27.7559C76.1042 27.847 76.1702 27.9313 76.2568 28.0088C76.3434 28.0817 76.446 28.1318 76.5645 28.1592C76.6875 28.182 76.8379 28.1934 77.0156 28.1934C77.1615 28.1934 77.4486 28.166 77.877 28.1113L77.9385 29.0205C77.4691 29.098 77.0749 29.1367 76.7559 29.1367ZM79.9824 21.501V29H78.834V21.501H79.9824ZM79.9824 18.7734V20.127H78.834V18.7734H79.9824ZM84.3711 29.1572C83.8607 29.1572 83.389 29.1025 82.9561 28.9932C82.5277 28.8838 82.179 28.7425 81.9102 28.5693L82.0537 27.6055C82.8148 28.0111 83.5622 28.2139 84.2959 28.2139C85.4079 28.2139 85.9798 27.8219 86.0117 27.0381C86.0117 26.7054 85.8932 26.4434 85.6562 26.252C85.4193 26.0605 84.9544 25.8464 84.2617 25.6094L83.6943 25.4111C83.0381 25.1924 82.5687 24.9212 82.2861 24.5977C82.0081 24.2741 81.8669 23.8708 81.8623 23.3877C81.8623 22.7998 82.097 22.3122 82.5664 21.9248C83.0404 21.5374 83.6875 21.3438 84.5078 21.3438C85.3555 21.3438 86.1279 21.5078 86.8252 21.8359L86.4902 22.7109C85.7839 22.4193 85.123 22.2734 84.5078 22.2734C84.0293 22.2734 83.6533 22.3691 83.3799 22.5605C83.111 22.7474 82.9766 23.0117 82.9766 23.3535C82.9766 23.6452 83.0745 23.8685 83.2705 24.0234C83.4665 24.1784 83.8584 24.3561 84.4463 24.5566C84.5967 24.6113 84.7858 24.6751 85.0137 24.748C85.7702 24.9941 86.3057 25.2858 86.6201 25.623C86.9346 25.9557 87.0918 26.4069 87.0918 26.9766C87.0827 27.6693 86.8343 28.207 86.3467 28.5898C85.859 28.9681 85.2005 29.1572 84.3711 29.1572ZM93.709 29V24.4678C93.709 23.7158 93.5882 23.1689 93.3467 22.8271C93.1097 22.4854 92.6927 22.3145 92.0957 22.3145C91.5215 22.3145 91.0361 22.458 90.6396 22.7451C90.2477 23.0322 89.9925 23.4036 89.874 23.8594C89.833 24.2012 89.8125 24.5817 89.8125 25.001V29H88.6709V18.5889L89.8125 18.5205V21.5693C89.8125 21.8291 89.8034 22.1504 89.7852 22.5332C90.4277 21.7402 91.2799 21.3438 92.3418 21.3438C94.0143 21.3438 94.8506 22.3258 94.8506 24.29V29H93.709ZM104.407 19.7578C103.646 19.7578 102.99 19.9424 102.438 20.3115C101.892 20.6807 101.484 21.1774 101.215 21.8018C100.946 22.4261 100.812 23.1439 100.812 23.9551C100.812 24.5612 100.884 25.1149 101.03 25.6162C101.176 26.113 101.395 26.5505 101.687 26.9287C101.978 27.3024 102.356 27.5941 102.821 27.8037C103.291 28.0088 103.828 28.1113 104.435 28.1113C105.214 28.1113 106.021 27.9085 106.854 27.5029L107.053 28.5078C106.374 28.9362 105.455 29.1504 104.298 29.1504C103.537 29.1504 102.853 29.0251 102.247 28.7744C101.646 28.5192 101.146 28.1615 100.75 27.7012C100.358 27.2363 100.06 26.6849 99.8545 26.0469C99.6494 25.4043 99.5469 24.6911 99.5469 23.9072C99.5469 23.1507 99.6585 22.4535 99.8818 21.8154C100.105 21.1774 100.42 20.6305 100.825 20.1748C101.235 19.7145 101.746 19.3568 102.356 19.1016C102.967 18.8464 103.646 18.7188 104.394 18.7188C105.528 18.7188 106.485 18.9694 107.265 19.4707L106.8 20.4346C106.052 19.9834 105.255 19.7578 104.407 19.7578ZM109.411 25.2676C109.411 26.1562 109.607 26.8695 109.999 27.4072C110.396 27.9404 110.972 28.207 111.729 28.207C112.476 28.207 113.039 27.9404 113.417 27.4072C113.8 26.874 113.991 26.1562 113.991 25.2539C113.991 24.3379 113.802 23.6178 113.424 23.0938C113.05 22.5651 112.478 22.3008 111.708 22.3008C110.961 22.3008 110.391 22.5697 109.999 23.1074C109.607 23.6452 109.411 24.3652 109.411 25.2676ZM115.174 25.2471C115.174 26.4092 114.864 27.3525 114.244 28.0771C113.624 28.7972 112.768 29.1572 111.674 29.1572C110.621 29.1572 109.783 28.7926 109.158 28.0635C108.538 27.3343 108.229 26.3978 108.229 25.2539C108.229 24.0872 108.541 23.1439 109.165 22.4238C109.789 21.7038 110.646 21.3438 111.735 21.3438C112.806 21.3438 113.647 21.7061 114.258 22.4307C114.868 23.1507 115.174 24.0895 115.174 25.2471ZM126.316 29V25.0967C126.316 24.7321 126.307 24.4268 126.289 24.1807C126.275 23.9346 126.239 23.6839 126.18 23.4287C126.125 23.1735 126.045 22.973 125.94 22.8271C125.84 22.6768 125.699 22.556 125.517 22.4648C125.334 22.3691 125.116 22.3213 124.86 22.3213C124.359 22.3213 123.931 22.4557 123.575 22.7246C123.224 22.9935 122.974 23.3717 122.823 23.8594C122.782 24.1875 122.762 24.5384 122.762 24.9121V29H121.62V24.9736C121.62 24.6364 121.609 24.3447 121.586 24.0986C121.563 23.848 121.52 23.6064 121.456 23.374C121.392 23.137 121.306 22.9456 121.196 22.7998C121.091 22.654 120.95 22.5378 120.772 22.4512C120.595 22.3646 120.383 22.3213 120.137 22.3213C119.59 22.3213 119.13 22.4603 118.756 22.7383C118.387 23.0163 118.138 23.3854 118.011 23.8457C117.97 24.1966 117.949 24.5771 117.949 24.9873V29H116.808C116.799 24.3105 116.794 21.8109 116.794 21.501H117.751L117.895 22.5742C118.122 22.2279 118.446 21.9362 118.865 21.6992C119.285 21.4622 119.761 21.3438 120.294 21.3438C120.572 21.3438 120.827 21.3734 121.06 21.4326C121.297 21.4873 121.493 21.5579 121.647 21.6445C121.807 21.7311 121.948 21.8359 122.071 21.959C122.194 22.0775 122.29 22.196 122.358 22.3145C122.427 22.4284 122.484 22.5492 122.529 22.6768C123.076 21.7881 123.912 21.3438 125.038 21.3438C125.872 21.3438 126.483 21.583 126.87 22.0615C127.262 22.5355 127.458 23.2396 127.458 24.1738V29H126.316ZM128.921 32.2539V21.501H129.926L130.035 22.5195C130.691 21.7357 131.48 21.3438 132.4 21.3438C133.084 21.3438 133.663 21.5146 134.137 21.8564C134.611 22.1982 134.959 22.6608 135.183 23.2441C135.41 23.8275 135.524 24.5088 135.524 25.2881C135.524 26.0355 135.401 26.7008 135.155 27.2842C134.909 27.863 134.547 28.321 134.068 28.6582C133.594 28.9909 133.038 29.1572 132.4 29.1572C131.917 29.1572 131.464 29.0501 131.04 28.8359C130.616 28.6172 130.277 28.3301 130.021 27.9746C130.049 28.4668 130.062 28.9453 130.062 29.4102V32.1787L128.921 32.2539ZM132.243 28.1934C132.59 28.1934 132.899 28.1159 133.173 27.9609C133.446 27.8014 133.667 27.585 133.836 27.3115C134.005 27.0381 134.132 26.7282 134.219 26.3818C134.305 26.0309 134.349 25.6527 134.349 25.2471C134.349 24.3903 134.169 23.6885 133.809 23.1416C133.449 22.5902 132.922 22.3145 132.229 22.3145C130.78 22.3145 130.056 23.251 130.056 25.124C130.056 26.1403 130.224 26.9059 130.562 27.4209C130.903 27.9359 131.464 28.1934 132.243 28.1934ZM139.154 29.1367C138.425 29.1367 137.908 28.9408 137.603 28.5488C137.302 28.1569 137.151 27.4756 137.151 26.5049V18.5889L138.286 18.5205V26.0537C138.286 26.3636 138.288 26.612 138.293 26.7988C138.302 26.9857 138.32 27.1702 138.348 27.3525C138.375 27.5303 138.411 27.6647 138.457 27.7559C138.503 27.847 138.569 27.9313 138.655 28.0088C138.742 28.0817 138.844 28.1318 138.963 28.1592C139.086 28.182 139.236 28.1934 139.414 28.1934C139.56 28.1934 139.847 28.166 140.275 28.1113L140.337 29.0205C139.868 29.098 139.473 29.1367 139.154 29.1367ZM145.354 22.8887C145.022 22.4876 144.564 22.2871 143.98 22.2871C143.397 22.2871 142.921 22.4945 142.552 22.9092C142.183 23.3193 141.966 23.8822 141.902 24.5977H145.86C145.86 23.8548 145.692 23.2852 145.354 22.8887ZM144.206 29.1572C143.117 29.1572 142.258 28.8109 141.629 28.1182C141.005 27.4255 140.692 26.4775 140.692 25.2744C140.692 24.1123 140.995 23.1712 141.602 22.4512C142.208 21.7266 143.005 21.3574 143.994 21.3438C144.924 21.3438 145.66 21.6628 146.202 22.3008C146.749 22.9342 147.022 23.7819 147.022 24.8438C147.022 24.8984 147.02 24.9987 147.016 25.1445C147.016 25.2904 147.016 25.3952 147.016 25.459H141.868C141.882 26.3112 142.101 26.9766 142.524 27.4551C142.953 27.929 143.527 28.166 144.247 28.166C145.04 28.166 145.835 27.9564 146.633 27.5371L146.811 28.46C146.049 28.9248 145.181 29.1572 144.206 29.1572ZM151.001 29.1367C150.263 29.1367 149.739 28.9567 149.429 28.5967C149.119 28.2367 148.955 27.6556 148.937 26.8535V22.3486H147.822L147.87 21.5967L148.93 21.501L149.319 19.7852L150.071 19.7578V21.501H152.156V22.3486H150.071V26.6484C150.071 27.2181 150.158 27.6191 150.331 27.8516C150.504 28.084 150.8 28.2002 151.22 28.2002C151.37 28.2002 151.696 28.1637 152.197 28.0908L152.245 28.9932C151.703 29.0889 151.288 29.1367 151.001 29.1367ZM157.7 22.8887C157.368 22.4876 156.91 22.2871 156.326 22.2871C155.743 22.2871 155.267 22.4945 154.897 22.9092C154.528 23.3193 154.312 23.8822 154.248 24.5977H158.206C158.206 23.8548 158.037 23.2852 157.7 22.8887ZM156.552 29.1572C155.463 29.1572 154.604 28.8109 153.975 28.1182C153.35 27.4255 153.038 26.4775 153.038 25.2744C153.038 24.1123 153.341 23.1712 153.947 22.4512C154.553 21.7266 155.351 21.3574 156.34 21.3438C157.27 21.3438 158.006 21.6628 158.548 22.3008C159.095 22.9342 159.368 23.7819 159.368 24.8438C159.368 24.8984 159.366 24.9987 159.361 25.1445C159.361 25.2904 159.361 25.3952 159.361 25.459H154.214C154.228 26.3112 154.446 26.9766 154.87 27.4551C155.299 27.929 155.873 28.166 156.593 28.166C157.386 28.166 158.181 27.9564 158.979 27.5371L159.156 28.46C158.395 28.9248 157.527 29.1572 156.552 29.1572ZM161.31 28.8154C161.15 28.6331 161.07 28.4212 161.07 28.1797C161.07 27.9382 161.15 27.7285 161.31 27.5508C161.474 27.3685 161.697 27.2773 161.979 27.2773C162.267 27.2773 162.49 27.3662 162.649 27.5439C162.809 27.7217 162.889 27.9336 162.889 28.1797C162.889 28.4258 162.809 28.6377 162.649 28.8154C162.49 28.9932 162.267 29.082 161.979 29.082C161.697 29.082 161.474 28.9932 161.31 28.8154ZM162.649 18.7734V19.7441L162.267 26.0264H161.727L161.303 19.7441V18.7734H162.649Z" fill="#2E2E2E"/>
</g>
<defs>
<filter id="filter0_d_1_2201" x="0" y="0" width="1188" height="52" filterUnits="userSpaceOnUse" color-interpolation-filters="sRGB">
<feFlood flood-opacity="0" result="BackgroundImageFix"/>
<feColorMatrix in="SourceAlpha" type="matrix" values="0 0 0 0 0 0 0 0 0 0 0 0 0 0 0 0 0 0 127 0" result="hardAlpha"/>
<feOffset dy="2"/>
<feGaussianBlur stdDeviation="2"/>
<feComposite in2="hardAlpha" operator="out"/>
<feColorMatrix type="matrix" values="0 0 0 0 0 0 0 0 0 0 0 0 0 0 0 0 0 0 0.12 0"/>
<feBlend mode="normal" in2="BackgroundImageFix" result="effect1_dropShadow_1_2201"/>
<feBlend mode="normal" in="SourceGraphic" in2="effect1_dropShadow_1_2201" result="shape"/>
</filter>
</defs>
</svg>
