<svg width="1180" height="44" viewBox="0 0 1180 44" fill="none" xmlns="http://www.w3.org/2000/svg">
<mask id="path-1-inside-1_1_2210" fill="white">
<path d="M0 5C0 2.23858 2.23858 0 5 0H1175C1177.76 0 1180 2.23858 1180 5V39C1180 41.7614 1177.76 44 1175 44H5.00001C2.23858 44 0 41.7614 0 39V5Z"/>
</mask>
<path d="M0 5C0 2.23858 2.23858 0 5 0H1175C1177.76 0 1180 2.23858 1180 5V39C1180 41.7614 1177.76 44 1175 44H5.00001C2.23858 44 0 41.7614 0 39V5Z" fill="#FFEBEA"/>
<path d="M0 0H1180H0ZM1180 44H0H1180ZM5 44C1.13401 44 -2 40.866 -2 37V7C-2 3.13401 1.13401 0 5 0C3.34315 0 2 2.23858 2 5V39C2 41.7614 3.34315 44 5 44ZM1180 0V44V0Z" fill="#E86961" mask="url(#path-1-inside-1_1_2210)"/>
<path d="M24 32C29.5228 32 34 27.5228 34 22C34 16.4772 29.5228 12 24 12C18.4772 12 14 16.4772 14 22C14 27.5228 18.4772 32 24 32Z" stroke="#E86961" stroke-linecap="round" stroke-linejoin="round"/>
<path d="M24 18V22" stroke="#E86961" stroke-linecap="round" stroke-linejoin="round"/>
<path d="M24 26H24.01" stroke="#E86961" stroke-width="1.5" stroke-linecap="round" stroke-linejoin="round"/>
<path d="M49.0488 27L46 16.8896H47.2373L49.7393 25.5918L52.2412 17.0742H53.5742L56.001 25.5986L58.5234 16.8896H59.7607L56.6709 27H55.3789L52.918 18.5029L50.334 27H49.0488ZM65.7969 27V22.4678C65.7969 21.7158 65.6761 21.1689 65.4346 20.8271C65.1976 20.4854 64.7806 20.3145 64.1836 20.3145C63.6094 20.3145 63.124 20.458 62.7275 20.7451C62.3356 21.0322 62.0804 21.4036 61.9619 21.8594C61.9209 22.2012 61.9004 22.5817 61.9004 23.001V27H60.7588V16.5889L61.9004 16.5205V19.5693C61.9004 19.8291 61.8913 20.1504 61.873 20.5332C62.5156 19.7402 63.3678 19.3438 64.4297 19.3438C66.1022 19.3438 66.9385 20.3258 66.9385 22.29V27H65.7969ZM69.1807 23.2676C69.1807 24.1562 69.3766 24.8695 69.7686 25.4072C70.165 25.9404 70.7415 26.207 71.498 26.207C72.2454 26.207 72.8083 25.9404 73.1865 25.4072C73.5693 24.874 73.7607 24.1562 73.7607 23.2539C73.7607 22.3379 73.5716 21.6178 73.1934 21.0938C72.8197 20.5651 72.2477 20.3008 71.4775 20.3008C70.7301 20.3008 70.1605 20.5697 69.7686 21.1074C69.3766 21.6452 69.1807 22.3652 69.1807 23.2676ZM74.9434 23.2471C74.9434 24.4092 74.6335 25.3525 74.0137 26.0771C73.3939 26.7972 72.5371 27.1572 71.4434 27.1572C70.3906 27.1572 69.5521 26.7926 68.9277 26.0635C68.3079 25.3343 67.998 24.3978 67.998 23.2539C67.998 22.0872 68.3102 21.1439 68.9346 20.4238C69.5589 19.7038 70.4157 19.3438 71.5049 19.3438C72.5758 19.3438 73.4167 19.7061 74.0273 20.4307C74.638 21.1507 74.9434 22.0895 74.9434 23.2471ZM77.3975 23.2676C77.3975 24.1562 77.5934 24.8695 77.9854 25.4072C78.3818 25.9404 78.9583 26.207 79.7148 26.207C80.4622 26.207 81.0251 25.9404 81.4033 25.4072C81.7861 24.874 81.9775 24.1562 81.9775 23.2539C81.9775 22.3379 81.7884 21.6178 81.4102 21.0938C81.0365 20.5651 80.4645 20.3008 79.6943 20.3008C78.9469 20.3008 78.3773 20.5697 77.9854 21.1074C77.5934 21.6452 77.3975 22.3652 77.3975 23.2676ZM83.1602 23.2471C83.1602 24.4092 82.8503 25.3525 82.2305 26.0771C81.6107 26.7972 80.7539 27.1572 79.6602 27.1572C78.6074 27.1572 77.7689 26.7926 77.1445 26.0635C76.5247 25.3343 76.2148 24.3978 76.2148 23.2539C76.2148 22.0872 76.527 21.1439 77.1514 20.4238C77.7757 19.7038 78.6325 19.3438 79.7217 19.3438C80.7926 19.3438 81.6335 19.7061 82.2441 20.4307C82.8548 21.1507 83.1602 22.0895 83.1602 23.2471ZM84.7803 30.2539V19.501H85.7852L85.8945 20.5195C86.5508 19.7357 87.3392 19.3438 88.2598 19.3438C88.9434 19.3438 89.5221 19.5146 89.9961 19.8564C90.4701 20.1982 90.8187 20.6608 91.042 21.2441C91.2699 21.8275 91.3838 22.5088 91.3838 23.2881C91.3838 24.0355 91.2607 24.7008 91.0146 25.2842C90.7686 25.863 90.4062 26.321 89.9277 26.6582C89.4538 26.9909 88.8978 27.1572 88.2598 27.1572C87.7767 27.1572 87.3232 27.0501 86.8994 26.8359C86.4756 26.6172 86.1361 26.3301 85.8809 25.9746C85.9082 26.4668 85.9219 26.9453 85.9219 27.4102V30.1787L84.7803 30.2539ZM88.1025 26.1934C88.4489 26.1934 88.7588 26.1159 89.0322 25.9609C89.3057 25.8014 89.5267 25.585 89.6953 25.3115C89.8639 25.0381 89.9915 24.7282 90.0781 24.3818C90.1647 24.0309 90.208 23.6527 90.208 23.2471C90.208 22.3903 90.028 21.6885 89.668 21.1416C89.3079 20.5902 88.7816 20.3145 88.0889 20.3145C86.6396 20.3145 85.915 21.251 85.915 23.124C85.915 24.1403 86.0837 24.9059 86.4209 25.4209C86.7627 25.9359 87.3232 26.1934 88.1025 26.1934ZM95.2324 27.1572C94.722 27.1572 94.2503 27.1025 93.8174 26.9932C93.389 26.8838 93.0404 26.7425 92.7715 26.5693L92.915 25.6055C93.6761 26.0111 94.4235 26.2139 95.1572 26.2139C96.2692 26.2139 96.8411 25.8219 96.873 25.0381C96.873 24.7054 96.7546 24.4434 96.5176 24.252C96.2806 24.0605 95.8158 23.8464 95.123 23.6094L94.5557 23.4111C93.8994 23.1924 93.43 22.9212 93.1475 22.5977C92.8695 22.2741 92.7282 21.8708 92.7236 21.3877C92.7236 20.7998 92.9583 20.3122 93.4277 19.9248C93.9017 19.5374 94.5488 19.3438 95.3691 19.3438C96.2168 19.3438 96.9893 19.5078 97.6865 19.8359L97.3516 20.7109C96.6452 20.4193 95.9844 20.2734 95.3691 20.2734C94.8906 20.2734 94.5146 20.3691 94.2412 20.5605C93.9723 20.7474 93.8379 21.0117 93.8379 21.3535C93.8379 21.6452 93.9359 21.8685 94.1318 22.0234C94.3278 22.1784 94.7197 22.3561 95.3076 22.5566C95.458 22.6113 95.6471 22.6751 95.875 22.748C96.6315 22.9941 97.167 23.2858 97.4814 23.623C97.7959 23.9557 97.9531 24.4069 97.9531 24.9766C97.944 25.6693 97.6956 26.207 97.208 26.5898C96.7204 26.9681 96.0618 27.1572 95.2324 27.1572ZM99.874 26.8154C99.7145 26.6331 99.6348 26.4212 99.6348 26.1797C99.6348 25.9382 99.7145 25.7285 99.874 25.5508C100.038 25.3685 100.261 25.2773 100.544 25.2773C100.831 25.2773 101.054 25.3662 101.214 25.5439C101.373 25.7217 101.453 25.9336 101.453 26.1797C101.453 26.4258 101.373 26.6377 101.214 26.8154C101.054 26.9932 100.831 27.082 100.544 27.082C100.261 27.082 100.038 26.9932 99.874 26.8154ZM101.214 16.7734V17.7441L100.831 24.0264H100.291L99.8672 17.7441V16.7734H101.214ZM107.045 25.332C108.098 25.8516 109.226 26.1113 110.429 26.1113C111.91 26.1113 112.65 25.4368 112.65 24.0879C112.65 23.6504 112.532 23.2972 112.295 23.0283C112.062 22.7549 111.636 22.5407 111.017 22.3857L109.007 21.8799C107.471 21.4925 106.703 20.6722 106.703 19.4189C106.703 18.4574 107.034 17.7441 107.694 17.2793C108.355 16.8099 109.269 16.5752 110.436 16.5752C111.046 16.5752 111.618 16.6413 112.151 16.7734C112.685 16.9056 113.131 17.0833 113.491 17.3066L113.149 18.2705C112.844 18.1019 112.438 17.9515 111.933 17.8193C111.431 17.6872 110.923 17.6211 110.408 17.6211C108.758 17.6211 107.934 18.193 107.934 19.3369C107.934 19.7243 108.059 20.0365 108.31 20.2734C108.565 20.5059 108.945 20.6836 109.451 20.8066L111.372 21.2715C112.192 21.4674 112.814 21.7819 113.238 22.2148C113.662 22.6432 113.874 23.2539 113.874 24.0469C113.874 25.0768 113.557 25.8538 112.924 26.3779C112.295 26.8975 111.438 27.1572 110.354 27.1572C109.542 27.1572 108.82 27.0752 108.187 26.9111C107.558 26.7425 107.059 26.5443 106.689 26.3164L107.045 25.332ZM116.253 23.2676C116.253 24.1562 116.449 24.8695 116.841 25.4072C117.237 25.9404 117.814 26.207 118.57 26.207C119.318 26.207 119.881 25.9404 120.259 25.4072C120.642 24.874 120.833 24.1562 120.833 23.2539C120.833 22.3379 120.644 21.6178 120.266 21.0938C119.892 20.5651 119.32 20.3008 118.55 20.3008C117.802 20.3008 117.233 20.5697 116.841 21.1074C116.449 21.6452 116.253 22.3652 116.253 23.2676ZM122.016 23.2471C122.016 24.4092 121.706 25.3525 121.086 26.0771C120.466 26.7972 119.609 27.1572 118.516 27.1572C117.463 27.1572 116.624 26.7926 116 26.0635C115.38 25.3343 115.07 24.3978 115.07 23.2539C115.07 22.0872 115.382 21.1439 116.007 20.4238C116.631 19.7038 117.488 19.3438 118.577 19.3438C119.648 19.3438 120.489 19.7061 121.1 20.4307C121.71 21.1507 122.016 22.0895 122.016 23.2471ZM133.158 27V23.0967C133.158 22.7321 133.149 22.4268 133.131 22.1807C133.117 21.9346 133.081 21.6839 133.021 21.4287C132.967 21.1735 132.887 20.973 132.782 20.8271C132.682 20.6768 132.541 20.556 132.358 20.4648C132.176 20.3691 131.957 20.3213 131.702 20.3213C131.201 20.3213 130.772 20.4557 130.417 20.7246C130.066 20.9935 129.815 21.3717 129.665 21.8594C129.624 22.1875 129.604 22.5384 129.604 22.9121V27H128.462V22.9736C128.462 22.6364 128.451 22.3447 128.428 22.0986C128.405 21.848 128.362 21.6064 128.298 21.374C128.234 21.137 128.147 20.9456 128.038 20.7998C127.933 20.654 127.792 20.5378 127.614 20.4512C127.437 20.3646 127.225 20.3213 126.979 20.3213C126.432 20.3213 125.971 20.4603 125.598 20.7383C125.229 21.0163 124.98 21.3854 124.853 21.8457C124.812 22.1966 124.791 22.5771 124.791 22.9873V27H123.649C123.64 22.3105 123.636 19.8109 123.636 19.501H124.593L124.736 20.5742C124.964 20.2279 125.288 19.9362 125.707 19.6992C126.126 19.4622 126.603 19.3438 127.136 19.3438C127.414 19.3438 127.669 19.3734 127.901 19.4326C128.138 19.4873 128.334 19.5579 128.489 19.6445C128.649 19.7311 128.79 19.8359 128.913 19.959C129.036 20.0775 129.132 20.196 129.2 20.3145C129.269 20.4284 129.326 20.5492 129.371 20.6768C129.918 19.7881 130.754 19.3438 131.88 19.3438C132.714 19.3438 133.325 19.583 133.712 20.0615C134.104 20.5355 134.3 21.2396 134.3 22.1738V27H133.158ZM140.083 20.8887C139.75 20.4876 139.292 20.2871 138.709 20.2871C138.126 20.2871 137.649 20.4945 137.28 20.9092C136.911 21.3193 136.695 21.8822 136.631 22.5977H140.589C140.589 21.8548 140.42 21.2852 140.083 20.8887ZM138.935 27.1572C137.845 27.1572 136.986 26.8109 136.357 26.1182C135.733 25.4255 135.421 24.4775 135.421 23.2744C135.421 22.1123 135.724 21.1712 136.33 20.4512C136.936 19.7266 137.734 19.3574 138.723 19.3438C139.652 19.3438 140.388 19.6628 140.931 20.3008C141.478 20.9342 141.751 21.7819 141.751 22.8438C141.751 22.8984 141.749 22.9987 141.744 23.1445C141.744 23.2904 141.744 23.3952 141.744 23.459H136.597C136.61 24.3112 136.829 24.9766 137.253 25.4551C137.681 25.929 138.256 26.166 138.976 26.166C139.769 26.166 140.564 25.9564 141.361 25.5371L141.539 26.46C140.778 26.9248 139.91 27.1572 138.935 27.1572ZM147.097 27V20.3008H145.996V19.4941H147.097V19.2207C147.11 18.6693 147.158 18.2227 147.24 17.8809C147.327 17.5345 147.47 17.2565 147.671 17.0469C147.871 16.8372 148.118 16.6937 148.409 16.6162C148.701 16.5387 149.079 16.5 149.544 16.5H150.043L150.18 17.375H149.537C149.368 17.375 149.22 17.3864 149.093 17.4092C148.97 17.432 148.86 17.4616 148.765 17.498C148.674 17.5345 148.596 17.5915 148.532 17.6689C148.473 17.7464 148.423 17.8285 148.382 17.915C148.345 17.9971 148.316 18.111 148.293 18.2568C148.275 18.4027 148.261 18.5462 148.252 18.6875C148.247 18.8288 148.245 19.0111 148.245 19.2344V19.4941H152.395V27H151.246V20.3008H148.245V27H147.097ZM151.246 16.7734H152.395V18.127H151.246V16.7734ZM158.595 20.8887C158.262 20.4876 157.804 20.2871 157.221 20.2871C156.637 20.2871 156.161 20.4945 155.792 20.9092C155.423 21.3193 155.206 21.8822 155.143 22.5977H159.101C159.101 21.8548 158.932 21.2852 158.595 20.8887ZM157.446 27.1572C156.357 27.1572 155.498 26.8109 154.869 26.1182C154.245 25.4255 153.933 24.4775 153.933 23.2744C153.933 22.1123 154.236 21.1712 154.842 20.4512C155.448 19.7266 156.245 19.3574 157.234 19.3438C158.164 19.3438 158.9 19.6628 159.442 20.3008C159.989 20.9342 160.263 21.7819 160.263 22.8438C160.263 22.8984 160.26 22.9987 160.256 23.1445C160.256 23.2904 160.256 23.3952 160.256 23.459H155.108C155.122 24.3112 155.341 24.9766 155.765 25.4551C156.193 25.929 156.767 26.166 157.487 26.166C158.28 26.166 159.076 25.9564 159.873 25.5371L160.051 26.46C159.29 26.9248 158.422 27.1572 157.446 27.1572ZM163.865 27.1367C163.136 27.1367 162.619 26.9408 162.313 26.5488C162.013 26.1569 161.862 25.4756 161.862 24.5049V16.5889L162.997 16.5205V24.0537C162.997 24.3636 162.999 24.612 163.004 24.7988C163.013 24.9857 163.031 25.1702 163.059 25.3525C163.086 25.5303 163.122 25.6647 163.168 25.7559C163.214 25.847 163.28 25.9313 163.366 26.0088C163.453 26.0817 163.555 26.1318 163.674 26.1592C163.797 26.182 163.947 26.1934 164.125 26.1934C164.271 26.1934 164.558 26.166 164.986 26.1113L165.048 27.0205C164.578 27.098 164.184 27.1367 163.865 27.1367ZM168.671 26.1729C169.423 26.1729 169.981 25.9313 170.346 25.4482C170.715 24.9652 170.899 24.2747 170.899 23.377C170.899 22.3652 170.722 21.6042 170.366 21.0938C170.015 20.5788 169.446 20.3213 168.657 20.3213C168.306 20.3213 167.996 20.3965 167.728 20.5469C167.459 20.6973 167.242 20.9069 167.078 21.1758C166.914 21.4447 166.789 21.7546 166.702 22.1055C166.62 22.4518 166.579 22.8324 166.579 23.2471C166.579 23.8304 166.65 24.3363 166.791 24.7646C166.937 25.193 167.169 25.5348 167.488 25.79C167.807 26.0452 168.201 26.1729 168.671 26.1729ZM170.92 25.9131C170.674 26.2913 170.346 26.5921 169.936 26.8154C169.525 27.0387 169.067 27.1504 168.562 27.1504C167.573 27.1504 166.798 26.7995 166.237 26.0977C165.677 25.3913 165.396 24.432 165.396 23.2197C165.396 22.0622 165.681 21.1279 166.251 20.417C166.821 19.7015 167.584 19.3438 168.541 19.3438C169.038 19.3438 169.505 19.4531 169.942 19.6719C170.384 19.8861 170.715 20.1755 170.934 20.54L170.913 19.8906V16.5889L172.041 16.5205V27H171.07L170.92 25.9131ZM176.266 27.1572C175.755 27.1572 175.284 27.1025 174.851 26.9932C174.422 26.8838 174.074 26.7425 173.805 26.5693L173.948 25.6055C174.709 26.0111 175.457 26.2139 176.19 26.2139C177.302 26.2139 177.874 25.8219 177.906 25.0381C177.906 24.7054 177.788 24.4434 177.551 24.252C177.314 24.0605 176.849 23.8464 176.156 23.6094L175.589 23.4111C174.933 23.1924 174.463 22.9212 174.181 22.5977C173.903 22.2741 173.761 21.8708 173.757 21.3877C173.757 20.7998 173.992 20.3122 174.461 19.9248C174.935 19.5374 175.582 19.3438 176.402 19.3438C177.25 19.3438 178.022 19.5078 178.72 19.8359L178.385 20.7109C177.678 20.4193 177.018 20.2734 176.402 20.2734C175.924 20.2734 175.548 20.3691 175.274 20.5605C175.006 20.7474 174.871 21.0117 174.871 21.3535C174.871 21.6452 174.969 21.8685 175.165 22.0234C175.361 22.1784 175.753 22.3561 176.341 22.5566C176.491 22.6113 176.68 22.6751 176.908 22.748C177.665 22.9941 178.2 23.2858 178.515 23.623C178.829 23.9557 178.986 24.4069 178.986 24.9766C178.977 25.6693 178.729 26.207 178.241 26.5898C177.754 26.9681 177.095 27.1572 176.266 27.1572ZM184.052 27V19.501H185.009L185.152 20.5742C185.449 20.2051 185.818 19.9089 186.26 19.6855C186.706 19.4577 187.187 19.3438 187.702 19.3438C188.568 19.3438 189.208 19.5876 189.623 20.0752C190.038 20.5583 190.245 21.3034 190.245 22.3105V27H189.104C189.104 23.9922 189.101 22.3812 189.097 22.167C189.078 21.529 188.949 21.0618 188.707 20.7656C188.47 20.4694 188.071 20.3213 187.511 20.3213C186.923 20.3213 186.433 20.4626 186.041 20.7451C185.649 21.0277 185.394 21.3945 185.275 21.8457C185.23 22.151 185.207 22.502 185.207 22.8984V27H184.052ZM196.466 20.8887C196.133 20.4876 195.675 20.2871 195.092 20.2871C194.508 20.2871 194.032 20.4945 193.663 20.9092C193.294 21.3193 193.077 21.8822 193.014 22.5977H196.972C196.972 21.8548 196.803 21.2852 196.466 20.8887ZM195.317 27.1572C194.228 27.1572 193.369 26.8109 192.74 26.1182C192.116 25.4255 191.804 24.4775 191.804 23.2744C191.804 22.1123 192.107 21.1712 192.713 20.4512C193.319 19.7266 194.117 19.3574 195.105 19.3438C196.035 19.3438 196.771 19.6628 197.313 20.3008C197.86 20.9342 198.134 21.7819 198.134 22.8438C198.134 22.8984 198.132 22.9987 198.127 23.1445C198.127 23.2904 198.127 23.3952 198.127 23.459H192.979C192.993 24.3112 193.212 24.9766 193.636 25.4551C194.064 25.929 194.638 26.166 195.358 26.166C196.151 26.166 196.947 25.9564 197.744 25.5371L197.922 26.46C197.161 26.9248 196.293 27.1572 195.317 27.1572ZM204.04 20.8887C203.707 20.4876 203.249 20.2871 202.666 20.2871C202.083 20.2871 201.606 20.4945 201.237 20.9092C200.868 21.3193 200.652 21.8822 200.588 22.5977H204.546C204.546 21.8548 204.377 21.2852 204.04 20.8887ZM202.892 27.1572C201.802 27.1572 200.943 26.8109 200.314 26.1182C199.69 25.4255 199.378 24.4775 199.378 23.2744C199.378 22.1123 199.681 21.1712 200.287 20.4512C200.893 19.7266 201.691 19.3574 202.68 19.3438C203.609 19.3438 204.345 19.6628 204.888 20.3008C205.435 20.9342 205.708 21.7819 205.708 22.8438C205.708 22.8984 205.706 22.9987 205.701 23.1445C205.701 23.2904 205.701 23.3952 205.701 23.459H200.554C200.567 24.3112 200.786 24.9766 201.21 25.4551C201.638 25.929 202.213 26.166 202.933 26.166C203.726 26.166 204.521 25.9564 205.318 25.5371L205.496 26.46C204.735 26.9248 203.867 27.1572 202.892 27.1572ZM210.22 26.1729C210.972 26.1729 211.53 25.9313 211.895 25.4482C212.264 24.9652 212.448 24.2747 212.448 23.377C212.448 22.3652 212.271 21.6042 211.915 21.0938C211.564 20.5788 210.994 20.3213 210.206 20.3213C209.855 20.3213 209.545 20.3965 209.276 20.5469C209.007 20.6973 208.791 20.9069 208.627 21.1758C208.463 21.4447 208.338 21.7546 208.251 22.1055C208.169 22.4518 208.128 22.8324 208.128 23.2471C208.128 23.8304 208.199 24.3363 208.34 24.7646C208.486 25.193 208.718 25.5348 209.037 25.79C209.356 26.0452 209.75 26.1729 210.22 26.1729ZM212.469 25.9131C212.223 26.2913 211.895 26.5921 211.484 26.8154C211.074 27.0387 210.616 27.1504 210.11 27.1504C209.121 27.1504 208.347 26.7995 207.786 26.0977C207.226 25.3913 206.945 24.432 206.945 23.2197C206.945 22.0622 207.23 21.1279 207.8 20.417C208.369 19.7015 209.133 19.3438 210.09 19.3438C210.587 19.3438 211.054 19.4531 211.491 19.6719C211.933 19.8861 212.264 20.1755 212.482 20.54L212.462 19.8906V16.5889L213.59 16.5205V27H212.619L212.469 25.9131ZM218.122 19.501H219.332L221.697 25.7422L223.803 19.501H225.013C222.989 25.07 221.943 27.9411 221.875 28.1143C221.561 28.9027 221.18 29.4792 220.733 29.8438C220.287 30.2129 219.699 30.3975 218.97 30.3975C218.751 30.3975 218.521 30.3792 218.279 30.3428L218.211 29.3721C218.466 29.3903 218.658 29.3994 218.785 29.3994C219.3 29.3994 219.69 29.3037 219.954 29.1123C220.223 28.9255 220.462 28.5723 220.672 28.0527C220.859 27.5742 220.998 27.2051 221.089 26.9453L218.122 19.501ZM226.763 23.2676C226.763 24.1562 226.959 24.8695 227.351 25.4072C227.747 25.9404 228.324 26.207 229.08 26.207C229.827 26.207 230.39 25.9404 230.769 25.4072C231.151 24.874 231.343 24.1562 231.343 23.2539C231.343 22.3379 231.154 21.6178 230.775 21.0938C230.402 20.5651 229.83 20.3008 229.06 20.3008C228.312 20.3008 227.743 20.5697 227.351 21.1074C226.959 21.6452 226.763 22.3652 226.763 23.2676ZM232.525 23.2471C232.525 24.4092 232.215 25.3525 231.596 26.0771C230.976 26.7972 230.119 27.1572 229.025 27.1572C227.973 27.1572 227.134 26.7926 226.51 26.0635C225.89 25.3343 225.58 24.3978 225.58 23.2539C225.58 22.0872 225.892 21.1439 226.517 20.4238C227.141 19.7038 227.998 19.3438 229.087 19.3438C230.158 19.3438 230.999 19.7061 231.609 20.4307C232.22 21.1507 232.525 22.0895 232.525 23.2471ZM233.886 24.498V19.501H235.034V24.5117C235.034 24.8398 235.08 25.1178 235.171 25.3457C235.267 25.5736 235.401 25.7513 235.574 25.8789C235.752 26.002 235.95 26.0908 236.169 26.1455C236.392 26.2002 236.647 26.2275 236.935 26.2275C237.527 26.2275 237.987 26.0977 238.315 25.8379C238.648 25.5781 238.814 25.1361 238.814 24.5117V19.501H239.963V24.498C239.963 24.8809 239.908 25.2249 239.799 25.5303C239.689 25.8356 239.541 26.0908 239.354 26.2959C239.172 26.4964 238.951 26.6628 238.691 26.7949C238.432 26.9271 238.156 27.0228 237.864 27.082C237.577 27.1413 237.267 27.1709 236.935 27.1709C236.606 27.1709 236.297 27.1413 236.005 27.082C235.713 27.0228 235.435 26.9271 235.171 26.7949C234.911 26.6582 234.686 26.4896 234.494 26.2891C234.307 26.084 234.159 25.8288 234.05 25.5234C233.94 25.2181 233.886 24.8763 233.886 24.498ZM245.028 19.4326C245.233 19.4326 245.42 19.4463 245.589 19.4736L245.548 20.5264C245.338 20.4899 245.156 20.4717 245.001 20.4717C244.363 20.4717 243.843 20.695 243.442 21.1416C243.046 21.5837 242.848 22.1328 242.848 22.7891V27H241.706C241.701 22.3971 241.699 19.8975 241.699 19.501H242.649L242.759 20.8477C243.019 20.4238 243.349 20.082 243.75 19.8223C244.151 19.5625 244.577 19.4326 245.028 19.4326ZM252.432 26.2344C252.974 26.2344 253.45 26.0863 253.86 25.79C254.275 25.4893 254.542 25.0859 254.66 24.5801V23.3154C254.637 23.3154 254.498 23.3268 254.243 23.3496C253.993 23.3724 253.828 23.3861 253.751 23.3906C252.762 23.4772 252.072 23.639 251.68 23.876C251.292 24.113 251.099 24.4935 251.099 25.0176C251.099 25.4186 251.217 25.7217 251.454 25.9268C251.691 26.1318 252.017 26.2344 252.432 26.2344ZM254.913 27C254.845 26.7083 254.779 26.3939 254.715 26.0566C254.3 26.4714 253.91 26.7585 253.546 26.918C253.181 27.0775 252.753 27.1572 252.261 27.1572C251.559 27.1572 250.994 26.9749 250.565 26.6104C250.142 26.2412 249.93 25.7126 249.93 25.0244C249.93 24.2588 250.219 23.6914 250.798 23.3223C251.381 22.9531 252.22 22.723 253.313 22.6318C253.464 22.6182 253.689 22.5999 253.99 22.5771C254.296 22.5498 254.523 22.5293 254.674 22.5156V21.8525C254.674 21.3239 254.551 20.932 254.305 20.6768C254.059 20.4215 253.671 20.2939 253.143 20.2939C252.404 20.2939 251.659 20.4762 250.907 20.8408C250.884 20.7861 250.825 20.6289 250.729 20.3691C250.634 20.1048 250.584 19.9681 250.579 19.959C250.912 19.7721 251.306 19.624 251.762 19.5146C252.222 19.4007 252.689 19.3438 253.163 19.3438C254.097 19.3438 254.77 19.5488 255.18 19.959C255.594 20.3646 255.802 21.0573 255.802 22.0371V27H254.913ZM260.163 27.1367C259.425 27.1367 258.901 26.9567 258.591 26.5967C258.281 26.2367 258.117 25.6556 258.099 24.8535V20.3486H256.984L257.032 19.5967L258.092 19.501L258.481 17.7852L259.233 17.7578V19.501H261.318V20.3486H259.233V24.6484C259.233 25.2181 259.32 25.6191 259.493 25.8516C259.666 26.084 259.963 26.2002 260.382 26.2002C260.532 26.2002 260.858 26.1637 261.359 26.0908L261.407 26.9932C260.865 27.0889 260.45 27.1367 260.163 27.1367ZM265.017 27.1367C264.278 27.1367 263.754 26.9567 263.444 26.5967C263.134 26.2367 262.97 25.6556 262.952 24.8535V20.3486H261.838L261.886 19.5967L262.945 19.501L263.335 17.7852L264.087 17.7578V19.501H266.172V20.3486H264.087V24.6484C264.087 25.2181 264.174 25.6191 264.347 25.8516C264.52 26.084 264.816 26.2002 265.235 26.2002C265.386 26.2002 265.712 26.1637 266.213 26.0908L266.261 26.9932C265.718 27.0889 265.304 27.1367 265.017 27.1367ZM271.716 20.8887C271.383 20.4876 270.925 20.2871 270.342 20.2871C269.758 20.2871 269.282 20.4945 268.913 20.9092C268.544 21.3193 268.327 21.8822 268.264 22.5977H272.222C272.222 21.8548 272.053 21.2852 271.716 20.8887ZM270.567 27.1572C269.478 27.1572 268.619 26.8109 267.99 26.1182C267.366 25.4255 267.054 24.4775 267.054 23.2744C267.054 22.1123 267.357 21.1712 267.963 20.4512C268.569 19.7266 269.367 19.3574 270.355 19.3438C271.285 19.3438 272.021 19.6628 272.563 20.3008C273.11 20.9342 273.384 21.7819 273.384 22.8438C273.384 22.8984 273.382 22.9987 273.377 23.1445C273.377 23.2904 273.377 23.3952 273.377 23.459H268.229C268.243 24.3112 268.462 24.9766 268.886 25.4551C269.314 25.929 269.888 26.166 270.608 26.166C271.401 26.166 272.197 25.9564 272.994 25.5371L273.172 26.46C272.411 26.9248 271.543 27.1572 270.567 27.1572ZM274.97 27V19.501H275.927L276.07 20.5742C276.367 20.2051 276.736 19.9089 277.178 19.6855C277.624 19.4577 278.105 19.3438 278.62 19.3438C279.486 19.3438 280.126 19.5876 280.541 20.0752C280.956 20.5583 281.163 21.3034 281.163 22.3105V27H280.021C280.021 23.9922 280.019 22.3812 280.015 22.167C279.996 21.529 279.867 21.0618 279.625 20.7656C279.388 20.4694 278.989 20.3213 278.429 20.3213C277.841 20.3213 277.351 20.4626 276.959 20.7451C276.567 21.0277 276.312 21.3945 276.193 21.8457C276.148 22.151 276.125 22.502 276.125 22.8984V27H274.97ZM285.456 27.1367C284.718 27.1367 284.194 26.9567 283.884 26.5967C283.574 26.2367 283.41 25.6556 283.392 24.8535V20.3486H282.277L282.325 19.5967L283.385 19.501L283.774 17.7852L284.526 17.7578V19.501H286.611V20.3486H284.526V24.6484C284.526 25.2181 284.613 25.6191 284.786 25.8516C284.959 26.084 285.256 26.2002 285.675 26.2002C285.825 26.2002 286.151 26.1637 286.652 26.0908L286.7 26.9932C286.158 27.0889 285.743 27.1367 285.456 27.1367ZM289.264 19.501V27H288.115V19.501H289.264ZM289.264 16.7734V18.127H288.115V16.7734H289.264ZM292.251 23.2676C292.251 24.1562 292.447 24.8695 292.839 25.4072C293.235 25.9404 293.812 26.207 294.568 26.207C295.316 26.207 295.879 25.9404 296.257 25.4072C296.64 24.874 296.831 24.1562 296.831 23.2539C296.831 22.3379 296.642 21.6178 296.264 21.0938C295.89 20.5651 295.318 20.3008 294.548 20.3008C293.8 20.3008 293.231 20.5697 292.839 21.1074C292.447 21.6452 292.251 22.3652 292.251 23.2676ZM298.014 23.2471C298.014 24.4092 297.704 25.3525 297.084 26.0771C296.464 26.7972 295.607 27.1572 294.514 27.1572C293.461 27.1572 292.622 26.7926 291.998 26.0635C291.378 25.3343 291.068 24.3978 291.068 23.2539C291.068 22.0872 291.381 21.1439 292.005 20.4238C292.629 19.7038 293.486 19.3438 294.575 19.3438C295.646 19.3438 296.487 19.7061 297.098 20.4307C297.708 21.1507 298.014 22.0895 298.014 23.2471ZM299.634 27V19.501H300.591L300.734 20.5742C301.031 20.2051 301.4 19.9089 301.842 19.6855C302.288 19.4577 302.769 19.3438 303.284 19.3438C304.15 19.3438 304.79 19.5876 305.205 20.0752C305.62 20.5583 305.827 21.3034 305.827 22.3105V27H304.686C304.686 23.9922 304.683 22.3812 304.679 22.167C304.66 21.529 304.531 21.0618 304.289 20.7656C304.052 20.4694 303.653 20.3213 303.093 20.3213C302.505 20.3213 302.015 20.4626 301.623 20.7451C301.231 21.0277 300.976 21.3945 300.857 21.8457C300.812 22.151 300.789 22.502 300.789 22.8984V27H299.634ZM311.248 20.8955V19.3164H312.656V20.8955H311.248ZM311.248 27.1709V25.5781H312.656V27.1709H311.248ZM315.438 23.2676C315.438 24.1562 315.634 24.8695 316.026 25.4072C316.423 25.9404 316.999 26.207 317.756 26.207C318.503 26.207 319.066 25.9404 319.444 25.4072C319.827 24.874 320.019 24.1562 320.019 23.2539C320.019 22.3379 319.829 21.6178 319.451 21.0938C319.077 20.5651 318.506 20.3008 317.735 20.3008C316.988 20.3008 316.418 20.5697 316.026 21.1074C315.634 21.6452 315.438 22.3652 315.438 23.2676ZM321.201 23.2471C321.201 24.4092 320.891 25.3525 320.271 26.0771C319.652 26.7972 318.795 27.1572 317.701 27.1572C316.648 27.1572 315.81 26.7926 315.186 26.0635C314.566 25.3343 314.256 24.3978 314.256 23.2539C314.256 22.0872 314.568 21.1439 315.192 20.4238C315.817 19.7038 316.674 19.3438 317.763 19.3438C318.834 19.3438 319.674 19.7061 320.285 20.4307C320.896 21.1507 321.201 22.0895 321.201 23.2471Z" fill="#2E2E2E"/>
</svg>
